<svg xmlns="http://www.w3.org/2000/svg" version="1.1" xmlns:xlink="http://www.w3.org/1999/xlink" xmlns:svgjs="http://svgjs.dev/svgjs" width="100%" height="100%" viewBox="0 0 1000 600"><rect width="1000" height="600" x="0" y="0" fill="#191919"/><g><rect width="333.3333333333333" height="333.3333333333333" rx="13.333333333333334" ry="13.333333333333334" y="183.0000649844059" fill="#2563eb" transform="matrix(0.7774703190817376,0,0,0.7774703190817375,0,28.144488220180165)" x="160.77784729003903"/><path d="M313.1204771253106 318.91176352485377L290.1493487882783 318.91176352485377Q284.0334687596926 306.06548920643695 272.4454855476356 299.0132064940487Q260.8575023355785 291.9316611977916 245.49464580444223 291.9316611977916L245.49464580444223 291.9316611977916Q230.10252668943713 291.9316611977916 217.78297888065927 299.0132064940487Q205.46343107188144 306.06548920643695 198.38188577562434 319.23365194741086Q191.32960306323608 332.4018146883849 191.32960306323608 349.66673917099513L191.32960306323608 349.66673917099513Q191.32960306323608 366.96092623747415 198.38188577562434 380.0120386429728Q205.46343107188144 393.06315104847147 217.78297888065927 400.1446963447286Q230.10252668943713 407.1969790571168 245.49464580444223 407.1969790571168L245.49464580444223 407.1969790571168Q266.9733823641642 407.1969790571168 280.8731097018589 394.35070473869996Q294.77283703955356 381.47516783641436 297.11384374906004 359.58675510252885L297.11384374906004 359.58675510252885L238.53015084366044 359.58675510252885L238.53015084366044 343.9897979004419L317.5391272895041 343.9897979004419L317.5391272895041 358.7381401703327Q315.84189742511194 376.8516795851391 306.15598216452884 391.921910277587Q296.47006690394574 406.99214097003494 280.66827161477704 415.71239096294664Q264.86647632560835 424.461903539727 245.49464580444223 424.461903539727L245.49464580444223 424.461903539727Q225.04009968012937 424.461903539727 208.18485137168273 414.8930386146193Q191.32960306323608 405.29491110564277 181.52663746717772 388.23482471011437Q171.75293445498818 371.17473831458585 171.75293445498818 349.66673917099513L171.75293445498818 349.66673917099513Q171.75293445498818 328.1880026112732 181.52663746717772 311.01086588026936Q191.32960306323608 293.8337291492656 208.18485137168273 284.2648642241579Q225.04009968012937 274.6667367151813 245.49464580444223 274.6667367151813L245.49464580444223 274.6667367151813Q268.8754503156382 274.6667367151813 286.8719393949692 286.2547199272384Q304.89769105816913 297.8427031392954 313.1204771253106 318.91176352485377L313.1204771253106 318.91176352485377ZM409.3943780537645 424.66674162680886Q388.96909451332044 424.66674162680886 372.1138462048739 415.0978767017011Q355.2585978964272 405.4997491927246 345.45563230036885 388.32261246172084Q335.6526667043105 371.17473831458585 335.6526667043105 349.66673917099513L335.6526667043105 349.66673917099513Q335.6526667043105 328.1880026112732 345.45563230036885 311.01086588026936Q355.2585978964272 293.8337291492656 372.1138462048739 284.2648642241579Q388.96909451332044 274.6667367151813 409.3943780537645 274.6667367151813L409.3943780537645 274.6667367151813Q430.0537622651592 274.6667367151813 446.90901057360577 284.2648642241579Q463.76425888205245 293.8337291492656 473.45017414263555 310.89381554479405Q483.13608940321853 327.98316452419135 483.13608940321853 349.66673917099513L483.13608940321853 349.66673917099513Q483.13608940321853 371.3795764016677 473.45017414263555 388.4396627971961Q463.76425888205245 405.4997491927246 446.90901057360577 415.0978767017011Q430.0537622651592 424.66674162680886 409.3943780537645 424.66674162680886L409.3943780537645 424.66674162680886ZM409.3943780537645 408.0455939893129Q424.78649716876953 408.0455939893129 437.1060449775474 400.87626094144935Q449.4255927863253 393.70692789358577 456.4778754987135 380.4217148171365Q463.5594207949706 367.165764324556 463.5594207949706 349.66673917099513L463.5594207949706 349.66673917099513Q463.5594207949706 331.9628759303524 456.4778754987135 318.7947131893784Q449.4255927863253 305.6265504484045 437.2230953130228 298.4864799844097Q424.99133525585137 291.3171469365461 409.3943780537645 291.3171469365461L409.3943780537645 291.3171469365461Q393.79742085167766 291.3171469365461 381.59492337837503 298.4864799844097Q369.36316332120373 305.6265504484045 362.3108806088155 318.7947131893784Q355.2585978964272 331.9628759303524 355.2585978964272 349.66673917099513L355.2585978964272 349.66673917099513Q355.2585978964272 367.165764324556 362.3108806088155 380.4217148171365Q369.36316332120373 393.70692789358577 381.6827111299816 400.87626094144935Q394.0315215226283 408.0455939893129 409.3943780537645 408.0455939893129L409.3943780537645 408.0455939893129Z " fill="#191919" transform="matrix(0.7774703190817376,0,0,0.7774703190817375,0,28.144488220180165)"/><path d="M577.4445085516676 349.87157430181026Q577.4445085516676 328.3928393405057 587.1304230914385 311.2157038878002Q596.8163376312093 294.0385684350948 613.5545343585475 284.3526538953239Q630.3219936675767 274.6667393555531 650.747275688 274.6667393555531L650.747275688 274.6667393555531Q674.7718552564346 274.6667393555531 692.6805552514188 286.2547217052487Q710.589255246403 297.84270405494436 718.8120407016163 319.11660094441095L718.8120407016163 319.11660094441095L695.8409140740631 319.11660094441095Q689.7250345006127 305.8313888566285 678.2541024776815 298.69131892398775Q666.7539078730593 291.5219864096558 650.747275688 291.5219864096558L650.747275688 291.5219864096558Q635.3844203001458 291.5219864096558 623.1526611532448 298.69131892398775Q610.9209020063439 305.8313888566285 603.9856701455412 318.99955061764626Q597.0211757030473 332.1677123786641 597.0211757030473 349.87157430181026L597.0211757030473 349.87157430181026Q597.0211757030473 367.3705981531183 603.9856701455412 380.5387599141361Q610.9209020063439 393.7069216751538 623.1526611532448 400.87625418948573Q635.3844203001458 408.01632412212655 650.747275688 408.01632412212655L650.747275688 408.01632412212655Q666.7539078730593 408.01632412212655 678.2541024776815 400.9640419345592Q689.7250345006127 393.91175974699195 695.8409140740631 380.62654765920956L695.8409140740631 380.62654765920956L718.8120407016163 380.62654765920956Q710.589255246403 401.69560647683795 692.6805552514188 413.1958010814602Q674.7718552564346 424.66673310439126 650.747275688 424.66673310439126L650.747275688 424.66673310439126Q630.3219936675767 424.66673310439126 613.5545343585475 415.0978688913849Q596.8163376312093 405.49974209668756 587.1304230914385 388.4396569707468Q577.4445085516676 371.3795718448059 577.4445085516676 349.87157430181026L577.4445085516676 349.87157430181026ZM841.2174199156995 276.5688071654779L860.3844109234032 276.5688071654779L860.3844109234032 423.40844209167176L841.2174199156995 423.40844209167176L841.2174199156995 356.83606874430404L766.4222611131185 356.83606874430404L766.4222611131185 423.40844209167176L747.2552701054148 423.40844209167176L747.2552701054148 276.5688071654779L766.4222611131185 276.5688071654779L766.4222611131185 341.03427463108267L841.2174199156995 341.03427463108267L841.2174199156995 276.5688071654779ZM991.6563523899048 423.40844209167176L979.8635319683711 390.75140092434765L915.8077406464423 390.75140092434765L904.0149202249087 423.40844209167176L883.7652136946325 423.40844209167176L936.8767994640708 277.3881594528301L958.9993112225807 277.3881594528301L1011.87679633849 423.40844209167176L991.6563523899048 423.40844209167176ZM921.2798434226876 375.1544448829644L974.3621666104348 375.1544448829644L947.8210050165611 301.0030628775886L921.2798434226876 375.1544448829644ZM1025.9813607136243 276.5688071654779L1125.4448758818457 276.5688071654779L1125.4448758818457 292.13650062517L1085.4136641283517 292.13650062517L1085.4136641283517 423.40844209167176L1066.2466731206478 423.40844209167176L1066.2466731206478 292.13650062517L1025.9813607136243 292.13650062517L1025.9813607136243 276.5688071654779Z " fill="#2563eb" transform="matrix(0.7774703190817376,0,0,0.7774703190817375,0,28.144488220180165)"/></g></svg>